<svg width="12" height="10" viewBox="0 0 12 10" fill="none" xmlns="http://www.w3.org/2000/svg">
<path d="M1.88864 1.20274V1H5.42492V1.20274H4.80689C4.49971 1.20274 4.27846 1.29224 4.14316 1.47123C4.05539 1.58813 4.01151 1.86941 4.01151 2.31507V5.94795C4.01151 6.51416 3.94934 6.96712 3.825 7.30685C3.76283 7.47854 3.67872 7.64292 3.57267 7.8C3.46662 7.95342 3.34045 8.09041 3.19418 8.21096C3.05155 8.32785 2.88699 8.421 2.70049 8.49041C2.51764 8.56347 2.32016 8.6 2.10806 8.6C1.93618 8.6 1.78076 8.57626 1.6418 8.52877C1.50649 8.48128 1.39129 8.41918 1.29621 8.34247C1.20113 8.26575 1.12799 8.17808 1.0768 8.07945C1.0256 7.97717 1 7.87123 1 7.76164C1 7.65936 1.01646 7.57169 1.04937 7.49863C1.08228 7.42557 1.12434 7.3653 1.17553 7.31781C1.23039 7.27032 1.29073 7.23744 1.35655 7.21918C1.42604 7.19726 1.49369 7.1863 1.55951 7.1863C1.61437 7.1863 1.66557 7.19178 1.71311 7.20274C1.7643 7.2137 1.8155 7.24475 1.8667 7.29589C1.92155 7.34338 1.97641 7.41644 2.03126 7.51507C2.08977 7.61005 2.1556 7.74338 2.22874 7.91507C2.30919 8.11233 2.41707 8.21096 2.55238 8.21096C2.59992 8.21096 2.64746 8.19817 2.695 8.1726C2.7462 8.14338 2.79008 8.09589 2.82665 8.03014C2.86688 7.96438 2.89796 7.88037 2.9199 7.77808C2.9455 7.67215 2.9583 7.54247 2.9583 7.38904V2.31507C2.9583 2.13973 2.95464 1.99726 2.94733 1.88767C2.94002 1.77808 2.92539 1.68858 2.90345 1.61918C2.88516 1.54977 2.85591 1.49498 2.81568 1.45479C2.77545 1.41096 2.72243 1.37078 2.6566 1.33425C2.4957 1.24658 2.3293 1.20274 2.15743 1.20274H1.88864Z" fill="#184F76"/>
<path d="M7.45088 4.95068V7.11507C7.45088 7.58265 7.50207 7.87306 7.60447 7.9863C7.74343 8.14703 7.95371 8.2274 8.23529 8.2274H11V8.43014H5.3335V8.2274H5.61325C5.76685 8.2274 5.90033 8.20183 6.01369 8.15068C6.13071 8.09954 6.22214 8.02283 6.28796 7.92055C6.3611 7.80365 6.39767 7.53516 6.39767 7.11507V2.31507C6.39767 1.85114 6.3483 1.56073 6.24957 1.44384C6.10694 1.28311 5.89484 1.20274 5.61325 1.20274H5.3335V1H8.05976C8.72167 1 9.24644 1.06941 9.63408 1.20822C9.82424 1.27763 10.0016 1.37078 10.1662 1.48767C10.3307 1.60457 10.4752 1.74338 10.5995 1.90411C10.7239 2.06119 10.8208 2.23653 10.8902 2.43014C10.9634 2.62374 11 2.83196 11 3.05479C11 3.35799 10.9488 3.63562 10.8464 3.88767C10.744 4.13607 10.594 4.3516 10.3966 4.53425C10.2027 4.71324 9.96321 4.85388 9.67797 4.95616C9.39272 5.05479 9.06725 5.10411 8.70156 5.10411C8.33586 5.10411 7.91897 5.05297 7.45088 4.95068ZM7.45088 4.63836C7.64835 4.67489 7.82023 4.70228 7.96651 4.72055C8.11644 4.73881 8.24444 4.74795 8.35049 4.74795C8.54065 4.74795 8.71984 4.70959 8.88806 4.63288C9.05994 4.55251 9.20805 4.44292 9.33238 4.30411C9.46038 4.16164 9.56094 3.99361 9.63408 3.8C9.71088 3.60639 9.74928 3.39452 9.74928 3.16438C9.74928 2.89406 9.70905 2.65297 9.6286 2.4411C9.54814 2.22557 9.43661 2.04475 9.29398 1.89863C9.15136 1.74886 8.98314 1.63562 8.78932 1.5589C8.59916 1.48219 8.39254 1.44384 8.16947 1.44384C8.07439 1.44384 7.96651 1.45297 7.84583 1.47123C7.72881 1.48584 7.59716 1.51142 7.45088 1.54795V4.63836Z" fill="#184F76"/>
<path d="M11 7.32433C11 7.61779 10.7618 7.85568 10.4681 7.85568C10.1743 7.85568 9.93613 7.61779 9.93613 7.32433C9.93613 7.03087 10.1743 6.79297 10.4681 6.79297C10.7618 6.79297 11 7.03087 11 7.32433Z" fill="#184F76"/>
</svg>
